<?xml version="1.0" encoding="UTF-8" standalone="no"?>
<svg
   width="40"
   height="40"
   version="1.1"
   id="svg9383"
   sodipodi:docname="github-bialy.svg"
   inkscape:version="1.2.1 (9c6d41e410, 2022-07-14)"
   xmlns:inkscape="http://www.inkscape.org/namespaces/inkscape"
   xmlns:sodipodi="http://sodipodi.sourceforge.net/DTD/sodipodi-0.dtd"
   xmlns="http://www.w3.org/2000/svg"
   xmlns:svg="http://www.w3.org/2000/svg">
  <defs
     id="defs9387" />
  <sodipodi:namedview
     id="namedview9385"
     pagecolor="#ffffff"
     bordercolor="#000000"
     borderopacity="0.25"
     inkscape:showpageshadow="2"
     inkscape:pageopacity="0.0"
     inkscape:pagecheckerboard="0"
     inkscape:deskcolor="#d1d1d1"
     showgrid="false"
     inkscape:zoom="7.8958333"
     inkscape:cx="41.794195"
     inkscape:cy="27.736148"
     inkscape:window-width="1920"
     inkscape:window-height="991"
     inkscape:window-x="-9"
     inkscape:window-y="-9"
     inkscape:window-maximized="1"
     inkscape:current-layer="svg9383" />
  <path
     fill-rule="evenodd"
     clip-rule="evenodd"
     d="m 20.013979,3.387678 c -9.349584,0 -16.9078134,7.613949 -16.9078134,17.033442 0,7.529504 4.842818,13.903072 11.5610914,16.158877 0.839956,0.169583 1.147629,-0.366508 1.147629,-0.817461 0,-0.394887 -0.02769,-1.74844 -0.02769,-3.158751 -4.703344,1.015424 -5.682775,-2.030501 -5.682775,-2.030501 -0.7558571,-1.97409 -1.8758013,-2.481456 -1.8758013,-2.481456 -1.5394011,-1.043457 0.112133,-1.043457 0.112133,-1.043457 1.7076023,0.112825 2.6036253,1.74844 2.6036253,1.74844 1.511369,2.59428 3.946795,1.861264 4.926572,1.409965 0.13982,-1.09987 0.588004,-1.861265 1.063876,-2.284185 -3.751254,-0.394888 -7.6980491,-1.861264 -7.6980491,-8.40407 0,-1.861264 0.671411,-3.384054 1.7352891,-4.568369 -0.167853,-0.42292 -0.755858,-2.171706 0.168199,-4.512303 0,0 1.427615,-0.4513001 4.646586,1.748439 a 16.255781,16.255781 0 0 1 4.227125,-0.564124 c 1.427616,0 2.882919,0.197617 4.22678,0.564124 3.219316,-2.1997391 4.646932,-1.748439 4.646932,-1.748439 0.924057,2.340597 0.335706,4.089383 0.167853,4.512303 1.09191,1.184315 1.735635,2.707105 1.735635,4.568369 0,6.542806 -3.946795,7.980804 -7.726082,8.40407 0.616037,0.535745 1.14763,1.550823 1.14763,3.158405 0,2.284184 -0.02769,4.117415 -0.02769,4.681194 0,0.451299 0.308019,0.98739 1.14763,0.818153 C 32.050941,34.323846 36.893759,27.950624 36.893759,20.42112 36.921449,11.001627 29.33553,3.387678 20.013979,3.387678 Z"
     fill="#24292f"
     id="path9381"
     style="fill:#ffffff;stroke-width:0.346088" />
</svg>
