<?xml version="1.0" encoding="UTF-8" standalone="no"?>
<!-- Created with Inkscape (http://www.inkscape.org/) -->

<svg
   width="13.5"
   height="16"
   viewBox="0 0 3.5718747 4.2333333"
   version="1.1"
   id="svg19255"
   inkscape:version="1.2.1 (9c6d41e410, 2022-07-14)"
   sodipodi:docname="tlumacz.svg"
   xmlns:inkscape="http://www.inkscape.org/namespaces/inkscape"
   xmlns:sodipodi="http://sodipodi.sourceforge.net/DTD/sodipodi-0.dtd"
   xmlns="http://www.w3.org/2000/svg"
   xmlns:svg="http://www.w3.org/2000/svg">
  <sodipodi:namedview
     id="namedview19257"
     pagecolor="#ffffff"
     bordercolor="#000000"
     borderopacity="0.25"
     inkscape:showpageshadow="2"
     inkscape:pageopacity="0.0"
     inkscape:pagecheckerboard="0"
     inkscape:deskcolor="#d1d1d1"
     inkscape:document-units="mm"
     showgrid="false"
     inkscape:zoom="18.170891"
     inkscape:cx="3.5496333"
     inkscape:cy="5.5583406"
     inkscape:window-width="1920"
     inkscape:window-height="991"
     inkscape:window-x="-9"
     inkscape:window-y="-9"
     inkscape:window-maximized="1"
     inkscape:current-layer="layer1" />
  <defs
     id="defs19252" />
  <g
     inkscape:label="Warstwa 1"
     inkscape:groupmode="layer"
     id="layer1">
    <path
       d="M 1.8105807,0.00809038 C 1.5448644,0.00807369 1.329452,0.22050335 1.3294214,0.4825753 c 3.062e-4,0.15646248 0.078824,0.30269933 0.2098403,0.39091894 0.040488,0.027539 0.085015,0.0487925 0.1320307,0.0630213 0.045153,0.0135706 0.092084,0.0205157 0.1392883,0.0206091 C 2.0762955,0.95709939 2.2916927,0.74465031 2.2916773,0.48257836 2.2916651,0.22053702 2.0762802,0.00810875 1.8105807,0.00809344 Z M 0.2617217,0.88402621 C 0.13881456,0.87779887 0.04301804,0.98615155 0.04228325,1.1220646 l 0.006582,2.2955791 1.45939705,0.6823676 0.2872394,0.1334651 v 4.592e-4 l 0.00276,0.00123 6.123e-4,-3.061e-4 6.123e-4,3.061e-4 0.00276,-0.00123 V 4.2334764 L 2.0894758,4.1000113 3.5488729,3.4176437 3.5554554,1.1220646 C 3.5546899,0.98615308 3.4589041,0.87779582 3.3360016,0.88402621 3.0144275,0.90650278 2.7012882,0.99078378 2.3832963,1.0396314 2.1940132,1.0788778 1.99553,1.0962922 1.79887,1.095363 1.6022238,1.0962815 1.4037713,1.0788717 1.2145036,1.0396314 0.89651152,0.99079143 0.58335698,0.9065089 0.26179824,0.88402621 Z M 0.5409704,1.4168956 c 0.34286612,0.094458 0.5125088,0.1298358 0.8380018,0.1601669 -9.186e-4,0.5136887 -0.055576,1.1395233 -0.2940196,1.742044 L 0.54949701,3.0401191 C 0.55010933,2.5873715 0.53599531,2.0008783 0.54097031,1.4168649 Z m 2.5157074,0 c 0.00497,0.5839368 -0.00912,1.1704299 -0.00853,1.6232542 L 2.512694,3.319137 C 2.2742429,2.7166624 2.2196237,2.0908125 2.2186593,1.5770932 2.5441521,1.5467589 2.713795,1.5113793 3.0566778,1.4169262 Z m -1.2578843,1.207766 c 0.090538,0.2870852 0.159325,0.612685 0.2992702,0.8952697 L 1.7987935,3.6749396 1.4995847,3.5199313 C 1.639525,3.2373619 1.7082461,2.9117314 1.7987935,2.6246616 Z"
       fill="#f2f2f2"
       id="path12"
       style="fill:#aa0000;fill-opacity:1;stroke-width:0.153079" />
  </g>
</svg>
