<?xml version="1.0" encoding="UTF-8" standalone="no"?>
<!-- Created with Inkscape (http://www.inkscape.org/) -->

<svg
   width="13.5"
   height="16"
   viewBox="0 0 3.5718747 4.2333333"
   version="1.1"
   id="svg19255"
   inkscape:version="1.2.1 (9c6d41e410, 2022-07-14)"
   sodipodi:docname="zajete.svg"
   xmlns:inkscape="http://www.inkscape.org/namespaces/inkscape"
   xmlns:sodipodi="http://sodipodi.sourceforge.net/DTD/sodipodi-0.dtd"
   xmlns="http://www.w3.org/2000/svg"
   xmlns:svg="http://www.w3.org/2000/svg">
  <sodipodi:namedview
     id="namedview19257"
     pagecolor="#ffffff"
     bordercolor="#000000"
     borderopacity="0.25"
     inkscape:showpageshadow="2"
     inkscape:pageopacity="0.0"
     inkscape:pagecheckerboard="0"
     inkscape:deskcolor="#d1d1d1"
     inkscape:document-units="mm"
     showgrid="false"
     inkscape:zoom="9.0854454"
     inkscape:cx="-3.4120507"
     inkscape:cy="9.2455566"
     inkscape:window-width="1920"
     inkscape:window-height="991"
     inkscape:window-x="-9"
     inkscape:window-y="-9"
     inkscape:window-maximized="1"
     inkscape:current-layer="layer1" />
  <defs
     id="defs19252" />
  <g
     inkscape:label="Warstwa 1"
     inkscape:groupmode="layer"
     id="layer1">
    <path
       d="M 1.8591766,0.46229292 1.9751465,0.54887849 2.1992957,0.1380252 C 2.4367601,0.22158803 2.6657676,0.34205141 2.8781343,0.50060828 3.0904938,0.65916596 3.2710704,0.8444942 3.4186714,1.0484234 L 3.0884407,1.3800892 3.2044093,1.4666671 3.0485635,1.6754115 2.839818,1.5195585 1.9579168,3.2813335 c 0,0 -1.0650233,0.071785 -1.61916266,0.8139746 L 0.29236726,4.0606813 1.2029117,2.841122 c 0.088552,0.023243 0.2094888,0.0097 0.2676266,-0.068166 0.076506,-0.1024701 0.055458,-0.2475666 -0.047015,-0.3240805 -0.102479,-0.076513 -0.2475749,-0.055464 -0.3240878,0.047016 -0.058139,0.077869 -0.05994,0.1803491 -0.012495,0.2586464 L 0.17639759,3.9740963 0.15320358,3.9567791 C 0.70734179,3.2145812 0.47352156,2.1730644 0.47352156,2.1730644 L 1.9120691,0.82689157 1.7033308,0.67103732 Z"
       id="path4327"
       style="stroke-width:1.11486;fill:#0055d4" />
  </g>
</svg>
